<?xml version="1.0" encoding="utf-8"?>
<!-- Generator: Adobe Illustrator 26.3.1, SVG Export Plug-In . SVG Version: 6.00 Build 0)  -->
<svg version="1.1" id="Layer_1" xmlns="http://www.w3.org/2000/svg" xmlns:xlink="http://www.w3.org/1999/xlink" x="0px" y="0px"
	 viewBox="0 0 809.2 626.7" style="enable-background:new 0 0 809.2 626.7;" xml:space="preserve">
<style type="text/css">
	.st0{opacity:0.11;}
	.st1{opacity:0.31;fill:#626262;}
	.st2{font-family:'Times-Roman';}
	.st3{font-size:57.72px;}
	.st4{opacity:0.19;}
	.st5{font-size:41.13px;}
	.st6{fill:#838383;}
	.st7{font-size:55px;}
	.st8{fill:#FBFBFB;}
	.st9{font-size:49px;}
	.st10{fill:#EDEDED;}
	.st11{opacity:0.37;fill:#030303;enable-background:new    ;}
	.st12{font-size:36px;}
	.st13{fill:#D2D2D2;}
	.st14{fill:#EAEAEA;}
	.st15{font-size:37px;}
	.st16{opacity:0.35;fill:#0F0F0F;}
	.st17{fill:#E8E8E8;}
	.st18{font-size:29px;}
	.st19{fill:#626262;}
	.st20{fill:#9F9F9F;}
	.st21{fill:#979797;}
	.st22{fill:#898989;}
	.st23{fill:#656565;}
	.st24{font-size:28px;}
	.st25{fill:#5A5A5A;}
	.st26{fill:#1C1C1C;}
	.st27{fill:#E5E5E5;}
	.st28{fill:#B2B2B2;}
	.st29{fill:#ABABAB;}
	.st30{fill:#CBCBCB;}
	.st31{fill:#595959;}
	.st32{fill:#888888;}
	.st33{font-size:23px;}
	.st34{fill:#545454;}
	.st35{fill:#CFCFCF;}
	.st36{font-size:22px;}
	.st37{fill:#E9E9E9;}
	.st38{fill:#4C4C4C;}
	.st39{fill:#0E0E0E;}
	.st40{fill:#454545;}
	.st41{fill:#C7C7C7;}
	.st42{fill:#828282;}
	.st43{fill:#060606;}
	.st44{fill:#282828;}
	.st45{fill:#757575;}
	.st46{fill:#B3B3B3;}
	.st47{font-size:15px;}
	.st48{fill:#3B3B3B;}
	.st49{fill:#808080;}
	.st50{fill:#323232;}
	.st51{fill:#D3D3D3;}
	.st52{letter-spacing:-1;}
	.st53{fill:#3F3F3F;}
	.st54{fill:#E3E3E3;}
	.st55{fill:#8F8F8F;}
	.st56{fill:#585858;}
	.st57{fill:#CECECE;}
	.st58{fill:#777777;}
	.st59{fill:#9A9A9A;}
	.st60{fill:#F9F9F9;}
	.st61{fill:#515151;}
	.st62{fill:#AAAAAA;}
	.st63{fill:#D9D9D9;}
	.st64{fill:#A6A6A6;}
	.st65{font-size:13px;}
	.st66{fill:#414141;}
	.st67{fill:#222222;}
	.st68{fill:#8B8B8B;}
	.st69{fill:#747474;}
	.st70{fill:#373737;}
	.st71{fill:#4E4E4E;}
	.st72{fill:#909090;}
	.st73{font-size:12px;}
	.st74{fill:#9D9D9D;}
	.st75{fill:#111111;}
	.st76{fill:#3C3C3C;}
	.st77{fill:#404040;}
	.st78{fill:#121212;}
	.st79{fill:#171717;}
	.st80{fill:#DDDDDD;}
	.st81{fill:#080808;}
	.st82{fill:#0D0D0D;}
	.st83{fill:#676767;}
	.st84{font-size:11px;}
	.st85{fill:#252525;}
	.st86{fill:#B6B6B6;}
	.st87{fill:#939393;}
	.st88{font-size:8px;}
	.st89{fill:#232323;}
	.st90{fill:#C6C6C6;}
	.st91{fill:#0B0B0B;}
	.st92{fill:#D6D6D6;}
	.st93{fill:#C3C3C3;}
	.st94{fill:#717171;}
	.st95{fill:#F0F0F0;}
	.st96{fill:#AFAFAF;}
	.st97{fill:#DFDFDF;}
	.st98{fill:#6D6D6D;}
	.st99{fill:#161616;}
	.st100{fill:#343434;}
	.st101{fill:#8E8E8E;}
	.st102{fill:#636363;}
	.st103{fill:#8A8A8A;}
	.st104{fill:#F5F5F5;}
	.st105{fill:#9C9C9C;}
	.st106{fill:#D5D5D5;}
	.st107{fill:#0F0F0F;}
	.st108{fill:#666666;}
	.st109{font-size:45px;}
	.st110{opacity:0.26;fill:#1B1B1B;}
	.st111{font-size:39px;}
	.st112{fill:#4F4F4F;}
	.st113{fill:#A4A4A4;}
	.st114{font-size:44.16px;}
	.st115{fill:#BEBEBE;}
	.st116{font-size:41px;}
	.st117{fill:#AEAEAE;}
	.st118{fill:#A7A7A7;}
	.st119{fill:#ADADAD;}
	.st120{fill:#6F6F6F;}
	.st121{fill:#2C2C2C;}
	.st122{fill:#FFFFFF;}
	.st123{font-size:21px;}
	.st124{fill:#434343;}
	.st125{fill:#F2F2F2;}
	.st126{fill:#7B7B7B;}
	.st127{fill:#929292;}
	.st128{fill:#868686;}
	.st129{fill:#5D5D5D;}
	.st130{fill:#D8D8D8;}
	.st131{fill:#F1F1F1;}
	.st132{fill:#C5C5C5;}
	.st133{fill:#DBDBDB;}
	.st134{fill:#C4C4C4;}
	.st135{fill:#0A0A0A;}
	.st136{fill:#BCBCBC;}
	.st137{fill:#E6E6E6;}
	.st138{fill:#484848;}
	.st139{font-size:10px;}
	.st140{fill:#B8B8B8;}
	.st141{fill:#4D4D4D;}
	.st142{fill:#DEDEDE;}
	.st143{fill:#999999;}
	.st144{fill:#525252;}
	.st145{fill:#8C8C8C;}
	.st146{fill:#FAFAFA;}
	.st147{fill:#8D8D8D;}
	.st148{fill:#4B4B4B;}
	.st149{fill:#696969;}
	.st150{fill:#030303;}
	.st151{fill:#535353;}
	.st152{fill:#9B9B9B;}
	.st153{fill:#050505;}
	.st154{fill:#CDCDCD;}
	.st155{fill:#787878;}
	.st156{fill:#6C6C6C;}
	.st157{fill:#EBEBEB;}
	.st158{font-size:26px;}
	.st159{font-size:59.41px;}
	.st160{font-size:33px;}
	.st161{fill:#202020;}
	.st162{fill:#0C0C0C;}
	.st163{fill:#565656;}
	.st164{font-size:25px;}
	.st165{fill:#7F7F7F;}
	.st166{fill:#818181;}
	.st167{fill:#272727;}
	.st168{fill:#616161;}
	.st169{fill:#131313;}
	.st170{fill:#F8F8F8;}
	.st171{font-size:17px;}
	.st172{fill:#EFEFEF;}
	.st173{fill:#070707;}
	.st174{fill:#040404;}
	.st175{fill:#BBBBBB;}
	.st176{fill:#363636;}
	.st177{fill:#141414;}
	.st178{fill:#C1C1C1;}
	.st179{fill:#2F2F2F;}
	.st180{fill:#A3A3A3;}
	.st181{fill:#606060;}
	.st182{font-size:9px;}
	.st183{fill:#B5B5B5;}
	.st184{fill:#303030;}
	.st185{fill:#262626;}
	.st186{opacity:0.8;}
	.st187{opacity:0.48;}
	.st188{fill:#E72433;}
	.st189{fill:#771227;}
	.st190{fill:#462B73;}
	.st191{fill:#2C7ABA;}
	.st192{fill:#5EC6D7;}
	.st193{fill:#F06926;}
	.st194{fill:#F6BC1A;}
	.st195{fill:#308140;}
	.st196{fill:#285478;}
	.st197{fill:#5DC7D9;}
	.st198{fill:#E82434;}
	.st199{fill:#781227;}
	.st200{opacity:0.46;fill:#FFFFFF;stroke:#000000;stroke-miterlimit:10;enable-background:new    ;}
</style>
<g id="Layer_2_00000031195819863977080260000002353527650702411424_" class="st0">
	<text transform="matrix(0.89 0 0 1 33.8501 218.98)" class="st1 st2 st3">ciencia</text>
	<text transform="matrix(1.08 0 0 1 293.7197 542.1602)" class="st4 st2 st5">tecnología</text>
	<text transform="matrix(1 0 0 1 369.22 60.33)" class="st6 st2 st7">salud</text>
	<text transform="matrix(1 0 0 1 154.24 136.76)" class="st8 st2 st9">justicia</text>
	<text transform="matrix(6.123234e-17 -1 1 6.123234e-17 599.32 468.2695)" class="st10 st2 st9">participación</text>
	<text transform="matrix(1 0 0 1 346.5875 144.118)" class="st11 st2 st12">economía</text>
	<text transform="matrix(1 0 0 1 17.78 47.57)" class="st13 st2 st9">cultural</text>
	<text transform="matrix(6.123234e-17 -1 1 6.123234e-17 677.81 475.1602)" class="st14 st2 st15">exterior</text>
	<text transform="matrix(1 0 0 1 349.03 95.22)" class="st16 st2 st15">relaciones</text>
	<text transform="matrix(1 0 0 1 504.24 323.76)" class="st17 st2 st18">internacionales</text>
	<text transform="matrix(1 0 0 1 591.24 125.76)" class="st19 st2 st18">democracia</text>
	<text transform="matrix(1 0 0 1 621.24 407.76)" class="st20 st2 st18">directa</text>
	<text transform="matrix(1 0 0 1 600.24 377.76)" class="st21 st2 st18">laborales</text>
	<text transform="matrix(1 0 0 1 51.24 275.76)" class="st22 st2 st18">ambientales</text>
	<text transform="matrix(1 0 0 1 207.75 396.43)" class="st23 st2 st24">información</text>
	<text transform="matrix(1 0 0 1 519.7797 493.9465)" class="st25 st2 st24">soberanía</text>
	<text transform="matrix(1 0 0 1 239.03 476.5)" class="st26 st2 st24">identidad</text>
	<text transform="matrix(1 0 0 1 615.51 344.69)" class="st27 st2 st24">nacional</text>
	<text transform="matrix(1 0 0 1 229.77 421.24)" class="st28 st2 st24">cultura</text>
	<text transform="matrix(6.123234e-17 -1 1 6.123234e-17 42.4245 380.9736)" class="st29 st2 st24">CONACY</text>
	<text transform="matrix(6.123234e-17 -1 1 6.123234e-17 42.4245 262.7441)" class="st29 st2 st24">T</text>
	<text transform="matrix(1 0 0 1 468.77 281.45)" class="st30 st2 st24">innovación</text>
	<text transform="matrix(1 0 0 1 80.24 312.76)" class="st31 st2 st24">mental</text>
	<text transform="matrix(6.123234e-17 -1 1 6.123234e-17 567.24 255.7598)" class="st32 st2 st24">ambiental</text>
	<text transform="matrix(1 0 0 1 49.07 546.28)" class="st28 st2 st33">comunidades</text>
	<text transform="matrix(1 0 0 1 155.85 431.97)" class="st34 st2 st33">rurales</text>
	<text transform="matrix(1 0 0 1 630.24 30.76)" class="st35 st2 st36">campesinos</text>
	<text transform="matrix(1 0 0 1 436.09 172.61)" class="st37 st2 st36">reforma</text>
	<text transform="matrix(1 0 0 1 13.24 120.76)" class="st38 st2 st36">agraria</text>
	<text transform="matrix(6.123234e-17 -1 1 6.123234e-17 777.32 115.7598)" class="st39 st2 st36">ciudadana</text>
	<text transform="matrix(6.123234e-17 -1 1 6.123234e-17 154.51 189.5596)" class="st40 st2 st36">sociedad</text>
	<text transform="matrix(1 0 0 1 284.24 38.76)" class="st41 st2 st36">civil</text>
	<text transform="matrix(6.123234e-17 -1 1 6.123234e-17 213.77 316.4697)" class="st42 st2 st36">libertad</text>
	<text transform="matrix(6.123234e-17 -1 1 6.123234e-17 21.24 102.7598)" class="st31 st2 st36">prensa</text>
	<text transform="matrix(1 0 0 1 239.96 446.97)" class="st43 st2 st36">redes</text>
	<text transform="matrix(6.123234e-17 -1 1 6.123234e-17 193.94 352.4697)" class="st44 st2 st36">sociales</text>
	<text transform="matrix(1 0 0 1 467.29 434.05)" class="st45 st2 st36">fake</text>
	<text transform="matrix(1 0 0 1 154.24 22.76)" class="st46 st2 st47">vigilancia</text>
	<text transform="matrix(1 0 0 1 466.24 299.76)" class="st48 st2 st47">censura</text>
	<text transform="matrix(1 0 0 1 60.9 235.83)" class="st49 st2 st47">privacidad</text>
	<text transform="matrix(1 0 0 1 402.1592 513.9456)" class="st50 st2 st47">digitales</text>
	<text transform="matrix(1 0 0 1 41.24 171.58)" class="st45 st2 st47">Tlatelolco</text>
	<text transform="matrix(1 0 0 1 550.24 301.76)" class="st51 st2 st47 st52">A</text>
	<text transform="matrix(1 0 0 1 559.7 301.76)" class="st51 st2 st47">yotzinapa</text>
	<text transform="matrix(1 0 0 1 31.24 137.76)" class="st53 st2 st47">migrantes</text>
	<text transform="matrix(1 0 0 1 141.24 288.76)" class="st54 st2 st47">niñez</text>
	<text transform="matrix(1 0 0 1 615.24 256.76)" class="st55 st2 st47">violencia</text>
	<text transform="matrix(1 0 0 1 36.24 66.76)" class="st56 st2 st47">escolar</text>
	<text transform="matrix(1 0 0 1 31.24 22.76)" class="st10 st2 st47">campañas</text>
	<text transform="matrix(1 0 0 1 239.35 315.22)" class="st57 st2 st47">electorales</text>
	<text transform="matrix(1 0 0 1 296.05 372.79)" class="st57 st2 st47">consulta</text>
	<text transform="matrix(1 0 0 1 670.18 431.97)" class="st58 st2 st47">popular</text>
	<text transform="matrix(1 0 0 1 155.96 183.14)" class="st59 st2 st47">austeridad</text>
	<text transform="matrix(6.123234e-17 -1 1 6.123234e-17 331.24 278.7598)" class="st60 st2 st47">republicana</text>
	<text transform="matrix(1 0 0 1 299.24 71.76)" class="st55 st2 st47">equidad</text>
	<text transform="matrix(1 0 0 1 384.24 216.76)" class="st17 st2 st47">racismo</text>
	<text transform="matrix(6.123234e-17 -1 1 6.123234e-17 531.69 216.7305)" class="st61 st2 st47">secularismo</text>
	<text transform="matrix(1 0 0 1 71.24 326.76)" class="st50 st2 st47">libre</text>
	<text transform="matrix(6.123234e-17 -1 1 6.123234e-17 708.43 278.6904)" class="st62 st2 st47">comercio</text>
	<text transform="matrix(6.123234e-17 -1 1 6.123234e-17 659.24 228.7598)" class="st63 st2 st47">seguridad</text>
	<text transform="matrix(1 0 0 1 11.73 493.79)" class="st64 st2 st65">alimentaria</text>
	<text transform="matrix(6.123234e-17 -1 1 6.123234e-17 608.24 244.7598)" class="st66 st2 st65">diplomacia</text>
	<text transform="matrix(6.123234e-17 -1 1 6.123234e-17 14.68 609.1104)" class="st67 st2 st65">multilateralismo</text>
	<text transform="matrix(1 0 0 1 714.24 56.76)" class="st68 st2 st65">OE</text>
	<text transform="matrix(1 0 0 1 731.57 56.76)" class="st68 st2 st65">A</text>
	<text transform="matrix(1 0 0 1 242.24 64.76)" class="st69 st2 st65">ONU</text>
	<text transform="matrix(1 0 0 1 30.62 447.97)" class="st70 st2 st65">OCDE</text>
	<text transform="matrix(6.123234e-17 -1 1 6.123234e-17 217.96 349.9502)" class="st71 st2 st65">civiles</text>
	<text transform="matrix(1 0 0 1 145.82 236.5)" class="st72 st2 st65">observación</text>
	<text transform="matrix(1 0 0 1 396.77 431.97)" class="st61 st2 st65">electoral</text>
	<text transform="matrix(1 0 0 1 357.74 476.5)" class="st56 st2 st73">transicional</text>
	<text transform="matrix(6.123234e-17 -1 1 6.123234e-17 750.24 105.7598)" class="st17 st2 st73">protección</text>
	<text transform="matrix(1 0 0 1 408.24 108.76)" class="st74 st2 st73">datos</text>
	<text transform="matrix(1 0 0 1 264.35 329.52)" class="st70 st2 st73">mercado</text>
	<text transform="matrix(1 0 0 1 452.45 235.83)" class="st75 st2 st73">diversidad</text>
	<text transform="matrix(1 0 0 1 442.4 205.79)" class="st76 st2 st73">integral</text>
	<text transform="matrix(1 0 0 1 675.24 39.76)" class="st77 st2 st73">abierta</text>
	<text transform="matrix(1 0 0 1 484.82 357.85)" class="st78 st2 st73">industria</text>
	<text transform="matrix(1 0 0 1 609.24 107.76)" class="st53 st2 st73">creativa</text>
	<text transform="matrix(6.123234e-17 -1 1 6.123234e-17 431.2725 489.2764)" class="st79 st2 st73">patrimonio</text>
	<text transform="matrix(1 0 0 1 396.7759 489.1331)" class="st80 st2 st73">sistemas</text>
	<text transform="matrix(1 0 0 1 279.24 19.76)" class="st81 st2 st73">alimentarios</text>
	<text transform="matrix(1 0 0 1 576.59 77.32)" class="st82 st2 st73">liderazgo</text>
	<text transform="matrix(1 0 0 1 249.67 344.09)" class="st83 st2 st84">transformacional</text>
	<text transform="matrix(1 0 0 1 175.24 108.76)" class="st85 st2 st84">resiliencia</text>
	<text transform="matrix(1 0 0 1 128.24 321.76)" class="st86 st2 st84">climática</text>
	<text transform="matrix(1 0 0 1 219.24 92.76)" class="st87 st2 st88">empoderamiento</text>
	<text transform="matrix(1 0 0 1 477.85 213.24)" class="st89 st2 st88">femenino</text>
	<text transform="matrix(6.123234e-17 -1 1 6.123234e-17 498.24 94.7598)" class="st39 st2 st88">juvenil</text>
	<text transform="matrix(1 0 0 1 708.24 298.76)" class="st90 st2 st88">desarrollo</text>
	<text transform="matrix(1 0 0 1 570.36 97.06)" class="st91 st2 st88">sostenible</text>
	<text transform="matrix(1 0 0 1 303.24 84.76)" class="st89 st2 st88">colaborativa</text>
	<text transform="matrix(1 0 0 1 152.24 65.76)" class="st92 st2 st88">ene</text>
	<text transform="matrix(1 0 0 1 163.34 65.76)" class="st92 st2 st88">r</text>
	<text transform="matrix(1 0 0 1 165.86 65.76)" class="st92 st2 st88">gías</text>
	<text transform="matrix(1 0 0 1 146.1447 465.5023)" class="st53 st2 st88">limpias</text>
	<text transform="matrix(6.123234e-17 -1 1 6.123234e-17 685.65 82.8096)" class="st93 st2 st88">formación</text>
	<text transform="matrix(1 0 0 1 628.24 64.76)" class="st94 st2 st88">técnica</text>
	<text transform="matrix(1 0 0 1 539.24 406.76)" class="st95 st2 st88">infraestructura</text>
	<text transform="matrix(6.123234e-17 -1 1 6.123234e-17 235.24 338.7598)" class="st96 st2 st88">verde</text>
	<text transform="matrix(1 0 0 1 69.24 351.76)" class="st61 st2 st88">alfabetización</text>
	<text transform="matrix(6.123234e-17 -1 1 6.123234e-17 388.24 74.7598)" class="st97 st2 st88">digital</text>
	<text transform="matrix(6.123234e-17 -1 1 6.123234e-17 23.24 176.7598)" class="st17 st2 st88">gobernanza</text>
	<text transform="matrix(1 0 0 1 193.94 205.45)" class="st98 st2 st88">global</text>
	<text transform="matrix(1 0 0 1 688.24 193.76)" class="st99 st2 st88">inclusión</text>
	<text transform="matrix(1 0 0 1 57.24 147.76)" class="st99 st2 st88">financiera</text>
	<text transform="matrix(1 0 0 1 135.24 250.76)" class="st100 st2 st88">igualdad</text>
	<text transform="matrix(1 0 0 1 385.24 116.76)" class="st101 st2 st88">oportunidades</text>
	<text transform="matrix(6.123234e-17 -1 1 6.123234e-17 740.74 378.6797)" class="st64 st2 st88">educación</text>
	<text transform="matrix(1 0 0 1 687.24 210.76)" class="st102 st2 st88">inclusiva</text>
	<text transform="matrix(6.123234e-17 -1 1 6.123234e-17 124.07 349.9502)" class="st103 st2 st88">acceso</text>
	<text transform="matrix(1 0 0 1 597.24 38.76)" class="st8 st2 st88">responsabilidad</text>
	<text transform="matrix(1 0 0 1 685.24 106.76)" class="st104 st2 st88">social</text>
	<text transform="matrix(1 0 0 1 653.24 384.76)" class="st49 st2 st88">corporativa</text>
	<text transform="matrix(1 0 0 1 104.24 106.76)" class="st105 st2 st88">transparencia</text>
	<text transform="matrix(6.123234e-17 -1 1 6.123234e-17 402.24 108.7598)" class="st106 st2 st88">administración</text>
	<text transform="matrix(1 0 0 1 720.24 387.76)" class="st107 st2 st88">pública</text>
	<text transform="matrix(1 0 0 1 525.55 263.06)" class="st108 st2 st109">ene</text>
	<text transform="matrix(1 0 0 1 588 263.06)" class="st108 st2 st109">r</text>
	<text transform="matrix(1 0 0 1 602.19 263.06)" class="st108 st2 st109">gética</text>
	<text transform="matrix(1 0 0 1 41.45 87.3)" class="st110 st2 st111">zonas</text>
	<text transform="matrix(6.123234e-17 -1 1 6.123234e-17 756.73 610.1504)" class="st112 st2 st109">crisis</text>
	<text transform="matrix(0.97 0 0 1 181.5303 54.7598)" class="st113 st2 st114">seguridad</text>
	<text transform="matrix(1 0 0 1 566.02 609.11)" class="st115 st2 st116">Fuerzas</text>
	<text transform="matrix(1 0 0 1 146.86 92.76)" class="st117 st2 st116">deuda</text>
	<text transform="matrix(1 0 0 1 610 551.13)" class="st34 st2 st116">fiscal</text>
	<text transform="matrix(1 0 0 1 531.55 32.06)" class="st81 st2 st18">privatización</text>
	<text transform="matrix(1 0 0 1 30.62 523)" class="st26 st2 st36">Santa</text>
	<text transform="matrix(6.123234e-17 -1 1 6.123234e-17 517.55 121.0596)" class="st87 st2 st36">Lucía</text>
	<text transform="matrix(1 0 0 1 648.55 124.06)" class="st118 st2 st36">T</text>
	<text transform="matrix(1 0 0 1 661.23 124.06)" class="st118 st2 st36">ren</text>
	<text transform="matrix(1 0 0 1 522.98 310.59)" class="st119 st2 st36">Maya</text>
	<text transform="matrix(6.123234e-17 -1 1 6.123234e-17 736.36 270.2402)" class="st41 st2 st36">Bocas</text>
	<text transform="matrix(1 0 0 1 177.054 474.4203)" class="st120 st2 st36">CFE</text>
	<text transform="matrix(1 0 0 1 345.87 416.45)" class="st121 st2 st36">reforma</text>
	<text transform="matrix(1 0 0 1 539.38 383.61)" class="st122 st2 st123">hidrocarburos</text>
	<text transform="matrix(1 0 0 1 518.55 61.52)" class="st124 st2 st123">petróleo</text>
	<text transform="matrix(1 0 0 1 565.9 365.48)" class="st125 st2 st123">electricidad</text>
	<text transform="matrix(1 0 0 1 626.13 280)" class="st126 st2 st123">transición</text>
	<text transform="matrix(1 0 0 1 716.55 303.06)" class="st127 st2 st123">cambio</text>
	<text transform="matrix(1 0 0 1 473.27 342.75)" class="st92 st2 st123">climático</text>
	<text transform="matrix(1 0 0 1 667.39 459.16)" class="st44 st2 st123">ambiente</text>
	<text transform="matrix(1 0 0 1 540.89 428.15)" class="st128 st2 st123">naturales</text>
	<text transform="matrix(1 0 0 1 338.0603 459.4122)" class="st129 st2 st123">minería</text>
	<text transform="matrix(1 0 0 1 221.36 292.82)" class="st128 st2 st123">agua</text>
	<text transform="matrix(1 0 0 1 661.2 97.15)" class="st130 st2 st123">hídrica</text>
	<text transform="matrix(6.123234e-17 -1 1 6.123234e-17 712.55 362.0596)" class="st131 st2 st123">laborales</text>
	<text transform="matrix(6.123234e-17 -1 1 6.123234e-17 518.55 255.4502)" class="st128 st2 st123">feminismo</text>
	<text transform="matrix(6.123234e-17 -1 1 6.123234e-17 789.71 566.0596)" class="st132 st2 st123">violencia</text>
	<text transform="matrix(6.123234e-17 -1 1 6.123234e-17 625.55 212.0596)" class="st133 st2 st123">LGBTIQ</text>
	<text transform="matrix(1 0 0 1 424.7 20.21)" class="st121 st2 st123">aborto</text>
	<text transform="matrix(1 0 0 1 526.75 446.97)" class="st134 st2 st123">matrimonio</text>
	<text transform="matrix(1 0 0 1 520.58 127.53)" class="st135 st2 st47">justicia</text>
	<text transform="matrix(1 0 0 1 578.55 237.06)" class="st136 st2 st47">Nacional</text>
	<text transform="matrix(1 0 0 1 527.08 564.16)" class="st91 st2 st47">Armadas</text>
	<text transform="matrix(1 0 0 1 701.55 191.06)" class="st98 st2 st47">Estado</text>
	<text transform="matrix(6.123234e-17 -1 1 6.123234e-17 777.32 263.0596)" class="st137 st2 st47">constitución</text>
	<text transform="matrix(1 0 0 1 150.49 566.06)" class="st66 st2 st47">legalidad</text>
	<text transform="matrix(1 0 0 1 322.88 504.08)" class="st138 st2 st47">federalismo</text>
	<text transform="matrix(1 0 0 1 638.35 423.05)" class="st86 st2 st139">gobernadores</text>
	<text transform="matrix(1 0 0 1 734.67 329.7)" class="st61 st2 st139">presupuesto</text>
	<text transform="matrix(1 0 0 1 466.58 317.69)" class="st112 st2 st139">Hacienda</text>
	<text transform="matrix(1 0 0 1 697.86 379.69)" class="st140 st2 st139">evasión</text>
	<text transform="matrix(1 0 0 1 679.86 344.69)" class="st29 st2 st139">público</text>
	<text transform="matrix(1 0 0 1 357.02 399.79)" class="st141 st2 st139">externa</text>
	<text transform="matrix(1 0 0 1 491.48 45.39)" class="st91 st2 st139">Fobaproa</text>
	<text transform="matrix(1 0 0 1 633.55 306.06)" class="st142 st2 st139">I</text>
	<text transform="matrix(1 0 0 1 636.88 306.06)" class="st142 st2 st139">P</text>
	<text transform="matrix(1 0 0 1 641.52 306.06)" class="st142 st2 st139">AB</text>
	<text transform="matrix(1 0 0 1 680.86 318.69)" class="st143 st2 st139">inversión</text>
	<text transform="matrix(1 0 0 1 526.55 277.06)" class="st144 st2 st139">extranjera</text>
	<text transform="matrix(1 0 0 1 749.55 231.06)" class="st145 st2 st139">smo</text>
	<text transform="matrix(1 0 0 1 750.91 392.2)" class="st146 st2 st139">dedazo</text>
	<text transform="matrix(1 0 0 1 510.66 142.66)" class="st147 st2 st139">alternancia</text>
	<text transform="matrix(1 0 0 1 559.55 39.06)" class="st148 st2 st139">protesta</text>
	<text transform="matrix(1 0 0 1 700.44 361.94)" class="st117 st2 st139">huelga</text>
	<text transform="matrix(1 0 0 1 751.55 366.06)" class="st149 st2 st139">democracia</text>
	<text transform="matrix(1 0 0 1 676.86 330.69)" class="st92 st2 st139">pluralismo</text>
	<text transform="matrix(1 0 0 1 151.49 413.06)" class="st150 st2 st139">participación</text>
	<text transform="matrix(1 0 0 1 519.55 97.06)" class="st151 st2 st139">ciudadana</text>
	<text transform="matrix(1 0 0 1 452.3645 467.2469)" class="st124 st2 st139">activismo</text>
	<text transform="matrix(1 0 0 1 126.49 395.06)" class="st129 st2 st139">electoral</text>
	<text transform="matrix(1 0 0 1 492.7515 474.4199)" class="st152 st2 st139">civiles</text>
	<text transform="matrix(1 0 0 1 628.55 291.06)" class="st153 st2 st139">fronteriza</text>
	<text transform="matrix(6.123234e-17 -1 1 6.123234e-17 633.55 227.0596)" class="st67 st2 st139">extradiciones</text>
	<text transform="matrix(1 0 0 1 551.55 180.06)" class="st6 st2 st139">dinero</text>
	<text transform="matrix(6.123234e-17 -1 1 6.123234e-17 745.95 438.4902)" class="st143 st2 st139">rendición</text>
	<text transform="matrix(1 0 0 1 717.03 484.11)" class="st99 st2 st139">izquierda</text>
	<text transform="matrix(1 0 0 1 664.55 192.06)" class="st154 st2 st139">centro</text>
	<text transform="matrix(1 0 0 1 523.55 236.06)" class="st155 st2 st139">socialismo</text>
	<text transform="matrix(1 0 0 1 736.69 130.63)" class="st43 st2 st139">nacionalismo</text>
	<text transform="matrix(6.123234e-17 -1 1 6.123234e-17 785.55 92.0596)" class="st94 st2 st139">modernización</text>
	<text transform="matrix(6.123234e-17 -1 1 6.123234e-17 743.77 102.6504)" class="st39 st2 st139">capitalismo</text>
	<text transform="matrix(1 0 0 1 261.11 490.97)" class="st58 st2 st139">digital</text>
	<text transform="matrix(6.123234e-17 -1 1 6.123234e-17 127.49 500.0596)" class="st156 st2 st139">ciberactivismo</text>
	<text transform="matrix(1 0 0 1 641.38 371.61)" class="st157 st2 st88">nacionalización</text>
	<text transform="matrix(6.123234e-17 -1 1 6.123234e-17 663.56 79.2803)" class="st121 st2 st88">Áridas</text>
</g>
<g id="Layer_4" class="st0">
	<text transform="matrix(0.8216 0 0 1 441.2432 493.79)" class="st2 st158">género</text>
	<text transform="matrix(0.84 0 0 1 565.9004 176.8101)" class="st117 st2 st159">desarrollo</text>
	<text transform="matrix(1 0 0 1 142.29 479.79)" class="st104 st2 st160">participación</text>
	<text transform="matrix(1 0 0 1 284.74 595.97)" class="st161 st2 st160">sustentabilidad</text>
	<text transform="matrix(1 0 0 1 167.65 517.97)" class="st22 st2 st160">inclusión</text>
	<text transform="matrix(1 0 0 1 169.65 556.97)" class="st83 st2 st160">política</text>
	<text transform="matrix(1 0 0 1 130.65 379.97)" class="st162 st2 st160">fiscal</text>
	<text transform="matrix(1 0 0 1 26.03 568.92)" class="st37 st2 st160">empresarial</text>
	<text transform="matrix(1 0 0 1 643.21 508.13)" class="st163 st2 st164">democracia</text>
	<text transform="matrix(1 0 0 1 178.42 596.36)" class="st165 st2 st164">humanos</text>
	<text transform="matrix(6.123234e-17 -1 1 6.123234e-17 93.65 507.9697)" class="st166 st2 st164">ciudadana</text>
	<text transform="matrix(1 0 0 1 35.03 590.7)" class="st167 st2 st164">renovables</text>
	<text transform="matrix(1 0 0 1 19.65 376.97)" class="st134 st2 st164">salud</text>
	<text transform="matrix(1 0 0 1 610.82 576.11)" class="st45 st2 st164">innovación</text>
	<text transform="matrix(1 0 0 1 287.72 564.16)" class="st168 st2 st164">recursos</text>
	<text transform="matrix(1 0 0 1 496.65 598.97)" class="st100 st2 st123">reciclaje</text>
	<text transform="matrix(6.123234e-17 -1 1 6.123234e-17 113.98 532.6699)" class="st169 st2 st123">circular</text>
	<text transform="matrix(1 0 0 1 602.65 454.97)" class="st170 st2 st123">sostenible</text>
	<text transform="matrix(1 0 0 1 84.67 608.9)" class="st31 st2 st171">biodiversidad</text>
	<text transform="matrix(1 0 0 1 328.65 451.97)" class="st172 st2 st47">infraestructura</text>
	<text transform="matrix(1 0 0 1 295.65 494.97)" class="st30 st2 st47">transporte</text>
	<text transform="matrix(1 0 0 1 10.65 409.97)" class="st173 st2 st47">público</text>
	<text transform="matrix(1 0 0 1 307.18 435.24)" class="st135 st2 st65">descentralización</text>
	<text transform="matrix(1 0 0 1 163.65 490.97)" class="st174 st2 st65">finanzas</text>
	<text transform="matrix(6.123234e-17 -1 1 6.123234e-17 650.87 468.4902)" class="st175 st2 st65">digital</text>
	<text transform="matrix(6.123234e-17 -1 1 6.123234e-17 407.65 556.9697)" class="st125 st2 st65">ciberseguridad</text>
	<text transform="matrix(1 0 0 1 750.65 387.97)" class="st97 st2 st65">fintech</text>
	<text transform="matrix(1 0 0 1 749.86 468.03)" class="st77 st2 st65">mujeres</text>
	<text transform="matrix(1 0 0 1 26.65 393.97)" class="st10 st2 st65">acceso</text>
	<text transform="matrix(1 0 0 1 217.65 365.97)" class="st49 st2 st65">digitales</text>
	<text transform="matrix(1 0 0 1 481.95 516.97)" class="st176 st2 st65">conectividad</text>
	<text transform="matrix(1 0 0 1 522.58 530.57)" class="st177 st2 st65">ruralidad</text>
	<text transform="matrix(1 0 0 1 48.96 534.33)" class="st178 st2 st65">urbano</text>
	<text transform="matrix(1 0 0 1 728.65 595.97)" class="st122 st2 st65">animal</text>
	<text transform="matrix(1 0 0 1 542.65 577.97)" class="st179 st2 st65">cooperación</text>
	<text transform="matrix(1 0 0 1 162.71 397.87)" class="st143 st2 st65">exterior</text>
	<text transform="matrix(6.123234e-17 -1 1 6.123234e-17 116.65 444.9697)" class="st54 st2 st65">investigación</text>
	<text transform="matrix(1 0 0 1 659.24 474.42)" class="st70 st2 st65">aplicada</text>
	<text transform="matrix(6.123234e-17 -1 1 6.123234e-17 137.65 438.9697)" class="st98 st2 st65">abiertos</text>
	<text transform="matrix(6.123234e-17 -1 1 6.123234e-17 103.65 442.9697)" class="st180 st2 st65">rehabilitación</text>
	<text transform="matrix(1 0 0 1 755.65 427.97)" class="st122 st2 st65">cultura</text>
	<text transform="matrix(1 0 0 1 452.45 564.54)" class="st147 st2 st65">paz</text>
	<text transform="matrix(6.123234e-17 -1 1 6.123234e-17 617.9804 348.168)" class="st126 st2 st65">diplomacia</text>
	<text transform="matrix(6.123234e-17 -1 1 6.123234e-17 803.65 580.9697)" class="st181 st2 st65">conocimiento</text>
	<text transform="matrix(6.123234e-17 -1 1 6.123234e-17 497.65 562.9697)" class="st85 st2 st182">artificial</text>
	<text transform="matrix(1 0 0 1 755.95 416.78)" class="st181 st2 st182">learning</text>
	<text transform="matrix(1 0 0 1 677.65 380.97)" class="st161 st2 st182">cosas</text>
	<text transform="matrix(1 0 0 1 293.65 446.97)" class="st183 st2 st182">urbana</text>
	<text transform="matrix(1 0 0 1 593.65 516.97)" class="st85 st2 st182">inteligente</text>
	<text transform="matrix(1 0 0 1 624.1061 313.0962)" class="st61 st2 st182">biocomercio</text>
	<text transform="matrix(1 0 0 1 573.65 586.97)" class="st149 st2 st182">electoral</text>
	<text transform="matrix(1 0 0 1 565.902 364.1195)" class="st184 st2 st182">ética</text>
	<text transform="matrix(1 0 0 1 582.06 407.91)" class="st168 st2 st182">apoyo</text>
	<text transform="matrix(1 0 0 1 354.65 388.2)" class="st177 st2 st182">azul</text>
	<text transform="matrix(1 0 0 1 148.65 357.97)" class="st185 st2 st182">prevención</text>
</g>
<g id="Layer_1_00000114777517463014511450000014992011631437148550_" class="st186">
	<g class="st187">
		<g>
			
				<rect x="280.5" y="267.1" transform="matrix(0.7151 -0.699 0.699 0.7151 -118.9785 277.4624)" class="st188" width="0.7" height="35.2"/>
			
				<rect x="260.4" y="233.9" transform="matrix(0.8866 -0.4625 0.4625 0.8866 -87.9891 149.4101)" class="st189" width="0.7" height="40.5"/>
			
				<rect x="239.6" y="217.8" transform="matrix(0.4515 -0.8923 0.8923 0.4515 -74.9106 341.0472)" class="st190" width="0.7" height="27.2"/>
			
				<rect x="226.2" y="221.9" transform="matrix(0.9543 -0.2989 0.2989 0.9543 -55.6308 80.8097)" class="st190" width="20.3" height="0.7"/>
			
				<rect x="242.2" y="199.4" transform="matrix(0.9389 -0.3442 0.3442 0.9389 -57.3334 96.281)" class="st190" width="0.7" height="20.4"/>
			
				<rect x="232.5" y="171.7" transform="matrix(0.9102 -0.4142 0.4142 0.9102 -56.3498 113.2095)" class="st191" width="0.7" height="29.8"/>
			
				<rect x="221" y="140.4" transform="matrix(0.9475 -0.3198 0.3198 0.9475 -38.6336 79.0375)" class="st191" width="0.7" height="33.5"/>
			
				<rect x="226.4" y="135.7" transform="matrix(0.583 -0.8125 0.8125 0.583 -26.4877 246.3619)" class="st192" width="0.7" height="26.5"/>
			<path class="st192" d="M246.1,135.5c0,2.7-2.2,4.8-4.8,4.8s-4.8-2.2-4.8-4.8s2.2-4.8,4.8-4.8S246.1,132.8,246.1,135.5z"/>
			
				<rect x="215.7" y="138" transform="matrix(0.977 -0.213 0.213 0.977 -24.2132 52.0198)" class="st192" width="27.2" height="0.7"/>
			
				<rect x="252.9" y="129.7" transform="matrix(0.556 -0.8312 0.8312 0.556 -6.1066 273.8575)" class="st192" width="0.7" height="25.8"/>
			
				<rect x="279" y="139.5" transform="matrix(0.3722 -0.9282 0.9282 0.3722 30.5979 357.2345)" class="st192" width="0.7" height="33"/>
			
				<rect x="315.3" y="142.4" transform="matrix(5.216162e-02 -0.9986 0.9986 5.216162e-02 134.5441 471.5243)" class="st192" width="0.7" height="45"/>
			
				<rect x="338.9" y="159.9" transform="matrix(0.9206 -0.3904 0.3904 0.9206 -34.7301 149.6588)" class="st192" width="23.8" height="0.7"/>
			
				<rect x="371.8" y="152.5" transform="matrix(0.8368 -0.5476 0.5476 0.8368 -33.2097 231.8058)" class="st191" width="0.7" height="38.2"/>
			
				<rect x="388.3" y="186.1" transform="matrix(0.8801 -0.4749 0.4749 0.8801 -47.7146 208.3523)" class="st190" width="0.7" height="25.1"/>
			
				<rect x="390.4" y="202.9" transform="matrix(0.5727 -0.8198 0.8198 0.5727 5.1313 416.3362)" class="st190" width="23.1" height="0.7"/>
			
				<rect x="418.2" y="188.7" transform="matrix(0.5781 -0.8159 0.8159 0.5781 12.6499 426.2127)" class="st190" width="0.7" height="24.3"/>
			
				<rect x="434.6" y="207.1" transform="matrix(0.9601 -0.2797 0.2797 0.9601 -45.8747 130.6575)" class="st189" width="0.7" height="38.1"/>
			
				<rect x="454.3" y="232.1" transform="matrix(0.3861 -0.9225 0.9225 0.3861 46.6239 574.1827)" class="st188" width="0.7" height="40"/>
			
				<rect x="446.6" y="270" transform="matrix(0.4736 -0.8807 0.8807 0.4736 5.5623 549.9412)" class="st188" width="32.6" height="0.7"/>
			
				<rect x="438.7" y="295.1" transform="matrix(0.1953 -0.9808 0.9808 0.1953 74.3434 681.44)" class="st188" width="27.4" height="0.7"/>
			
				<rect x="453.1" y="308.1" transform="matrix(0.9593 -0.2825 0.2825 0.9593 -73.6148 141.3736)" class="st193" width="0.7" height="35.6"/>
			
				<rect x="468.4" y="340.1" transform="matrix(0.9036 -0.4285 0.4285 0.9036 -109.2662 235.6177)" class="st194" width="0.7" height="40.9"/>
			<rect x="478.4" y="376.4" class="st194" width="34.9" height="0.7"/>
			
				<rect x="512.2" y="370.8" transform="matrix(0.9339 -0.3576 0.3576 0.9339 -97.7978 213.3358)" class="st194" width="31.6" height="0.7"/>
			
				<rect x="532.5" y="349.6" transform="matrix(0.52 -0.8542 0.8542 0.52 -34.5826 638.4008)" class="st193" width="36.4" height="0.7"/>
			
				<rect x="558" y="331.2" transform="matrix(0.9698 -0.244 0.244 0.9698 -63.3858 151.3753)" class="st193" width="42.8" height="0.7"/>
			
				<rect x="582.3" y="339.9" transform="matrix(0.2499 -0.9683 0.9683 0.2499 118.0466 832.9036)" class="st193" width="28.6" height="0.7"/>
			
				<rect x="572.8" y="366.6" transform="matrix(0.3577 -0.9338 0.9338 0.3577 34.0874 783.5424)" class="st194" width="27.7" height="0.7"/>
			
				<rect x="541.3" y="381.5" transform="matrix(0.9903 -0.1387 0.1387 0.9903 -47.523 81.5769)" class="st194" width="40.9" height="0.7"/>
			
				<rect x="546.7" y="383.4" transform="matrix(0.9048 -0.4258 0.4258 0.9048 -116.7095 270.6402)" class="st195" width="0.7" height="26"/>
			
				<rect x="526" y="407.3" transform="matrix(0.9993 -3.699253e-02 3.699253e-02 0.9993 -14.7123 20.2277)" class="st195" width="26.6" height="0.7"/>
			
				<rect x="509.2" y="420.8" transform="matrix(0.2541 -0.9672 0.9672 0.2541 -17.5195 819.583)" class="st195" width="26.7" height="0.7"/>
			
				<rect x="506.8" y="400.9" transform="matrix(0.84 -0.5426 0.5426 0.84 -145.675 342.0452)" class="st195" width="0.7" height="34.2"/>
			
				<rect x="453.8" y="411.2" transform="matrix(0.9392 -0.3435 0.3435 0.9392 -112.3577 188.7091)" class="st195" width="45.5" height="0.7"/>
			
				<rect x="428.5" y="371" transform="matrix(0.5436 -0.8393 0.8393 0.5436 -141.9282 543.5508)" class="st194" width="0.7" height="62.7"/>
			
				<rect x="384.7" y="357.2" transform="matrix(0.3822 -0.9241 0.9241 0.3822 -110.9352 588.9994)" class="st194" width="0.7" height="40.6"/>
			
				<rect x="354.7" y="343.1" transform="matrix(0.6743 -0.7385 0.7385 0.6743 -148.9975 378.8951)" class="st193" width="0.7" height="30.4"/>
			
				<rect x="337" y="336.2" transform="matrix(0.488 -0.8728 0.8728 0.488 -114.4064 478.007)" class="st193" width="26.4" height="0.7"/>
			
				<rect x="347.5" y="286.8" transform="matrix(0.8803 -0.4744 0.4744 0.8803 -104.1655 201.8211)" class="st188" width="0.7" height="41.2"/>
			
				<rect x="325.4" y="259.8" transform="matrix(0.7855 -0.6188 0.6188 0.7855 -101.0106 260.8093)" class="st188" width="0.7" height="32.7"/>
			
				<rect x="304.5" y="224.2" transform="matrix(0.9123 -0.4094 0.4094 0.9123 -73.8659 146.3654)" class="st190" width="0.7" height="43"/>
			
				<rect x="287.4" y="200.5" transform="matrix(0.8061 -0.5917 0.5917 0.8061 -71.24 211.8689)" class="st190" width="0.7" height="28.3"/>
			
				<rect x="274.4" y="173.6" transform="matrix(0.9526 -0.3042 0.3042 0.9526 -44.411 92.5209)" class="st196" width="0.7" height="30.4"/>
			
				<rect x="264" y="147.9" transform="matrix(0.9336 -0.3582 0.3582 0.9336 -40.516 105.4432)" class="st191" width="0.7" height="28.3"/>
			<polygon class="st192" points="236.4,154.8 236.4,154.1 261.2,140 261.3,140.7 			"/>
			
				<rect x="247.3" y="156.2" transform="matrix(0.9311 -0.3649 0.3649 0.9311 -50.0178 103.0309)" class="st196" width="0.7" height="55.4"/>
			
				<rect x="267.2" y="205.2" transform="matrix(0.8833 -0.4689 0.4689 0.8833 -75.4851 151.9927)" class="st189" width="0.7" height="44.8"/>
			
				<rect x="284.8" y="242.2" transform="matrix(0.9626 -0.2708 0.2708 0.9626 -62.9136 87.37)" class="st188" width="0.7" height="59"/>
			
				<rect x="224" y="165.3" transform="matrix(0.4198 -0.9076 0.9076 0.4198 -14.2199 309.0214)" class="st191" width="21.2" height="0.7"/>
			
				<rect x="230" y="147.1" transform="matrix(0.164 -0.9865 0.9865 0.164 55.8263 360.7793)" class="st192" width="21.5" height="0.7"/>
			
				<rect x="243" y="169.2" transform="matrix(0.7749 -0.632 0.632 0.7749 -66.581 197.0108)" class="st196" width="0.7" height="45.5"/>
			
				<rect x="248.3" y="194.1" transform="matrix(0.3404 -0.9403 0.9403 0.3404 -28.1179 368.5524)" class="st196" width="0.7" height="20.4"/>
			
				<rect x="246.1" y="214" transform="matrix(0.8162 -0.5777 0.5777 0.8162 -77.11 186.2237)" class="st190" width="16.1" height="0.7"/>
			
				<rect x="249.3" y="218.5" transform="matrix(0.9201 -0.3917 0.3917 0.9201 -69.2346 115.9864)" class="st190" width="0.7" height="18.4"/>
			
				<rect x="262.5" y="213.1" transform="matrix(0.5554 -0.8316 0.8316 0.5554 -75.5776 321.4205)" class="st189" width="0.7" height="36.6"/>
			
				<rect x="262.8" y="226.8" transform="matrix(0.2226 -0.9749 0.9749 0.2226 -28.2967 442.2322)" class="st189" width="0.7" height="24.2"/>
			
				<rect x="239.8" y="125.1" transform="matrix(9.167545e-02 -0.9958 0.9958 9.167545e-02 73.0195 371.5667)" class="st192" width="0.7" height="41.3"/>
			
				<rect x="258.2" y="258.1" transform="matrix(0.2031 -0.9792 0.9792 0.2031 -35.4434 473.3936)" class="st189" width="29.9" height="0.7"/>
			
				<rect x="281.7" y="203.2" transform="matrix(0.9999 -1.169344e-02 1.169344e-02 0.9999 -2.3594 3.6048)" class="st196" width="50.7" height="0.7"/>
			
				<rect x="295.7" y="162.1" transform="matrix(0.9992 -3.925982e-02 3.925982e-02 0.9992 -7.4456 11.772)" class="st190" width="0.7" height="66.7"/>
			
				<rect x="266.5" y="168.6" transform="matrix(0.9247 -0.3807 0.3807 0.9247 -43.2229 119.4715)" class="st191" width="27.8" height="0.7"/>
			
				<rect x="277" y="189.2" transform="matrix(0.8033 -0.5955 0.5955 0.8033 -53.6629 216.5669)" class="st196" width="48.1" height="0.7"/>
			
				<rect x="306.8" y="154.2" transform="matrix(0.7803 -0.6254 0.6254 0.7803 -46.1925 232.0404)" class="st196" width="0.7" height="55.2"/>
			
				<rect x="270.1" y="176" transform="matrix(1 -5.934085e-03 5.934085e-03 1 -1.0412 1.7455)" class="st191" width="47" height="0.7"/>
			
				<rect x="289.6" y="211.6" transform="matrix(0.6477 -0.7619 0.7619 0.6477 -52.9627 309.3833)" class="st190" width="37" height="0.7"/>
			<rect x="321.5" y="195.5" class="st190" width="0.7" height="47.8"/>
			
				<rect x="296" y="223.3" transform="matrix(0.995 -9.949342e-02 9.949342e-02 0.995 -20.6646 32.941)" class="st190" width="48" height="0.7"/>
			
				<rect x="348.6" y="216" transform="matrix(0.8581 -0.5135 0.5135 0.8581 -68.3971 211.8178)" class="st190" width="0.7" height="27.4"/>
			
				<rect x="339.1" y="166" transform="matrix(0.9986 -5.233596e-02 5.233596e-02 0.9986 -9.6091 18.0316)" class="st190" width="0.7" height="53"/>
			
				<rect x="317.9" y="189.3" transform="matrix(0.9499 -0.3125 0.3125 0.9499 -42.2159 115.7917)" class="st191" width="44.4" height="0.7"/>
			
				<rect x="347.7" y="166.5" transform="matrix(1.762695e-02 -0.9998 0.9998 1.762695e-02 188.2672 525.3705)" class="st191" width="27.5" height="0.7"/>
			
				<rect x="338.6" y="165.8" transform="matrix(0.6335 -0.7737 0.7737 0.6335 -23.9752 332.4261)" class="st196" width="0.7" height="51.4"/>
			
				<rect x="328.4" y="199.6" transform="matrix(0.5304 -0.8478 0.8478 0.5304 -4.7964 391.2798)" class="st190" width="44.8" height="0.7"/>
			
				<rect x="348.7" y="161.5" transform="matrix(0.6129 -0.7902 0.7902 0.6129 -2.0393 342.9783)" class="st191" width="0.7" height="24.1"/>
			
				<rect x="316.1" y="170.8" transform="matrix(0.912 -0.4102 0.4102 0.912 -41.3222 149.7602)" class="st191" width="24.5" height="0.7"/>
			
				<rect x="321.7" y="240.7" transform="matrix(0.9906 -0.1368 0.1368 0.9906 -29.7911 48.4815)" class="st189" width="32.5" height="0.7"/>
			
				<rect x="342" y="218.9" transform="matrix(0.9982 -6.070012e-02 6.070012e-02 0.9982 -14.1154 21.2281)" class="st190" width="0.7" height="48.1"/>
			
				<rect x="325.4" y="253.6" transform="matrix(3.245743e-02 -0.9995 0.9995 3.245743e-02 49.6508 582.5866)" class="st188" width="0.7" height="24.1"/>
			
				<rect x="306.5" y="252.8" transform="matrix(0.2723 -0.9622 0.9622 0.2723 -11.3879 491.2525)" class="st189" width="25.1" height="0.7"/>
			
				<rect x="309.9" y="217.1" transform="matrix(0.4321 -0.9018 0.9018 0.4321 -33.8033 412.0475)" class="st190" width="0.7" height="31.4"/>
			
				<rect x="328.1" y="277.2" transform="matrix(0.1632 -0.9866 0.9866 0.1632 10.726 567.6929)" class="st188" width="23.7" height="0.7"/>
			
				<rect x="356.5" y="260.8" transform="matrix(0.6396 -0.7687 0.7687 0.6396 -84.941 374.4505)" class="st188" width="0.7" height="34"/>
			
				<rect x="330.8" y="251.2" transform="matrix(0.3204 -0.9473 0.9473 0.3204 -2.5102 499.685)" class="st189" width="32.5" height="0.7"/>
			
				<rect x="362.6" y="233.3" transform="matrix(0.9635 -0.2676 0.2676 0.9635 -57.1847 106.719)" class="st188" width="0.7" height="59.7"/>
			
				<rect x="340.7" y="262.3" transform="matrix(0.9911 -0.1328 0.1328 0.9911 -31.6911 50.1131)" class="st188" width="38.4" height="0.7"/>
			
				<rect x="362.3" y="246.1" transform="matrix(0.1103 -0.9939 0.9939 0.1103 91.0015 594.5668)" class="st189" width="30.5" height="0.7"/>
			
				<rect x="355.6" y="232.6" transform="matrix(0.9619 -0.2735 0.2735 0.9619 -49.6888 109.3661)" class="st189" width="23.8" height="0.7"/>
			
				<rect x="338.7" y="222.2" transform="matrix(0.2882 -0.9576 0.9576 0.2882 40.4485 499.4719)" class="st189" width="35" height="0.7"/>
			
				<rect x="339.9" y="213.9" transform="matrix(0.9948 -0.1016 0.1016 0.9948 -19.8669 38.4182)" class="st190" width="54.8" height="0.7"/>
			
				<rect x="369.7" y="203.1" transform="matrix(0.8353 -0.5498 0.5498 0.8353 -59.5779 239.5542)" class="st189" width="0.7" height="32.2"/>
			
				<rect x="359.4" y="209.8" transform="matrix(3.228296e-02 -0.9995 0.9995 3.228296e-02 159.5665 585.0994)" class="st189" width="45.1" height="0.7"/>
			
				<rect x="369.9" y="173.8" transform="matrix(0.2686 -0.9633 0.9633 0.2686 94.4019 490.6008)" class="st191" width="0.7" height="18.7"/>
			
				<rect x="352.8" y="194.7" transform="matrix(0.7579 -0.6524 0.6524 0.7579 -37.6729 288.6357)" class="st196" width="34.4" height="0.7"/>
			
				<rect x="400.8" y="211.9" transform="matrix(0.9532 -0.3022 0.3022 0.9532 -51.1295 132.0551)" class="st189" width="0.7" height="38.8"/>
			
				<rect x="376.3" y="228.8" transform="matrix(0.9946 -0.1037 0.1037 0.9946 -21.6105 42.4091)" class="st189" width="41.8" height="0.7"/>
			
				<rect x="376.3" y="253.9" transform="matrix(0.9076 -0.4198 0.4198 0.9076 -70.6263 187.4879)" class="st188" width="28.9" height="0.7"/>
			
				<rect x="382.2" y="224" transform="matrix(0.1882 -0.9821 0.9821 0.1882 69.2686 575.0859)" class="st189" width="0.7" height="43.3"/>
			
				<rect x="399.5" y="239.1" transform="matrix(0.546 -0.8378 0.8378 0.546 -13.631 453.7234)" class="st189" width="24.5" height="0.7"/>
			
				<rect x="410.9" y="192" transform="matrix(0.9722 -0.234 0.234 0.9722 -37.7302 102.0506)" class="st189" width="0.7" height="36.1"/>
			
				<rect x="394.3" y="208.3" transform="matrix(0.9874 -0.1582 0.1582 0.9874 -27.8085 67.8559)" class="st190" width="36.2" height="0.7"/>
			
				<rect x="405.9" y="205.2" transform="matrix(0.5505 -0.8348 0.8348 0.5505 -0.431 437.7643)" class="st189" width="0.7" height="28.1"/>
			
				<rect x="429.6" y="222.9" transform="matrix(0.5398 -0.8418 0.8418 0.5398 -1.2222 470.7776)" class="st189" width="0.7" height="27.2"/>
			
				<rect x="408.2" y="247.3" transform="matrix(0.9914 -0.1309 0.1309 0.9914 -28.7701 57.5969)" class="st188" width="31.3" height="0.7"/>
			
				<rect x="420.2" y="259.1" transform="matrix(0.1699 -0.9855 0.9855 0.1699 105.8551 644.616)" class="st188" width="30.7" height="0.7"/>
			
				<rect x="448.8" y="245" transform="matrix(0.9259 -0.3778 0.3778 0.9259 -67.0652 189.3884)" class="st188" width="0.7" height="41.3"/>
			
				<rect x="429.8" y="264.9" transform="matrix(0.9278 -0.3731 0.3731 0.9278 -66.3885 187.4235)" class="st188" width="42.4" height="0.7"/>
			
				<rect x="420.1" y="245" transform="matrix(0.7386 -0.6742 0.6742 0.7386 -67.3939 352.2187)" class="st188" width="0.7" height="36"/>
			
				<rect x="412.4" y="249.1" transform="matrix(0.9776 -0.2103 0.2103 0.9776 -48.8716 92.9831)" class="st188" width="0.7" height="54.3"/>
			
				<rect x="362.1" y="268.8" transform="matrix(0.6591 -0.7521 0.7521 0.6591 -70.1466 383.575)" class="st188" width="51.8" height="0.7"/>
			
				<rect x="394.8" y="276.6" transform="matrix(0.362 -0.9322 0.9322 0.362 -26.7993 559.2527)" class="st188" width="0.7" height="45.2"/>
			
				<rect x="375.6" y="289" transform="matrix(0.9876 -0.1568 0.1568 0.9876 -43.6104 62.7537)" class="st188" width="0.7" height="37.6"/>
			
				<rect x="400.3" y="250.1" transform="matrix(0.6758 -0.737 0.737 0.6758 -77.5428 386.5215)" class="st188" width="0.7" height="62.6"/>
			
				<rect x="365.7" y="281.4" transform="matrix(0.9758 -0.2188 0.2188 0.9758 -52.017 93.7977)" class="st188" width="63.5" height="0.7"/>
			<rect x="338.1" y="288.9" class="st188" width="26.2" height="0.7"/>
			
				<rect x="346.3" y="307.7" transform="matrix(0.4551 -0.8905 0.8905 0.4551 -75.1941 493.2535)" class="st188" width="38.2" height="0.7"/>
			
				<rect x="360.3" y="279.4" transform="matrix(0.6621 -0.7494 0.7494 0.6621 -108.1005 373.9286)" class="st188" width="0.7" height="54.9"/>
			
				<rect x="377.7" y="312.9" transform="matrix(0.8445 -0.5355 0.5355 0.8445 -105.5486 262.8647)" class="st193" width="44.3" height="0.7"/>
			<polygon class="st193" points="418.7,327.6 370.7,292.2 371.2,291.7 419.2,327.1 			"/>
			
				<rect x="353.7" y="288.9" transform="matrix(0.3691 -0.9294 0.9294 0.3691 -20.4166 548.4612)" class="st188" width="80.1" height="0.7"/>
			<polygon class="st193" points="419.3,325.1 418.6,325 418.3,297.9 419,298 			"/>
			
				<rect x="383.4" y="324.4" transform="matrix(0.9135 -0.4069 0.4069 0.9135 -106.021 185.7436)" class="st193" width="0.7" height="35.4"/>
			
				<rect x="349" y="349.2" transform="matrix(0.3279 -0.9447 0.9447 0.3279 -80.3643 586.2252)" class="st193" width="45.6" height="0.7"/>
			
				<rect x="340.7" y="336.9" transform="matrix(0.8511 -0.525 0.525 0.8511 -123.2746 239.9562)" class="st193" width="41.3" height="0.7"/>
			
				<rect x="361.6" y="324.4" transform="matrix(0.9707 -0.2404 0.2404 0.9707 -72.666 97.1787)" class="st193" width="0.7" height="44"/>
			
				<rect x="367" y="328.3" transform="matrix(0.1747 -0.9846 0.9846 0.1747 -43.6561 652.4156)" class="st193" width="0.7" height="47.9"/>
			<polygon class="st193" points="389.6,360.7 389.1,360.2 418.7,324.8 419.3,325.3 			"/>
			
				<rect x="405.5" y="311.3" transform="matrix(0.4764 -0.8792 0.8792 0.4764 -86.6955 534.9711)" class="st193" width="0.7" height="57.9"/>
			<polygon class="st193" points="404.1,386.9 403.4,386.8 418.6,325 419.3,325.1 			"/>
			
				<rect x="365.3" y="363.1" transform="matrix(0.937 -0.3494 0.3494 0.937 -103.0424 155.6797)" class="st194" width="29.3" height="0.7"/>
			
				<rect x="397.8" y="357.3" transform="matrix(0.9296 -0.3684 0.3684 0.9296 -109.2768 172.8969)" class="st194" width="0.7" height="30.6"/>
			
				<rect x="419.6" y="342.1" transform="matrix(9.984080e-02 -0.995 0.995 9.984080e-02 48.6404 738.7302)" class="st193" width="25.9" height="0.7"/>
			
				<rect x="415" y="344.4" transform="matrix(0.5247 -0.8513 0.8513 0.5247 -117.3614 529.3546)" class="st194" width="0.7" height="50.9"/>
			
				<rect x="434.5" y="352.1" transform="matrix(0.9879 -0.1549 0.1549 0.9879 -51.5203 71.7689)" class="st194" width="0.7" height="28.9"/>
			
				<rect x="396.8" y="368.7" transform="matrix(0.6408 -0.7677 0.7677 0.6408 -132.9452 453.931)" class="st194" width="43.6" height="0.7"/>
			
				<rect x="425.9" y="305.6" transform="matrix(0.8162 -0.5777 0.5777 0.8162 -105.8218 304.8315)" class="st193" width="0.7" height="26.4"/>
			<polygon class="st193" points="419,325.4 418.9,324.7 433.8,327.7 433.9,328.4 			"/>
			
				<rect x="442.1" y="271.2" transform="matrix(0.9026 -0.4305 0.4305 0.9026 -82.1863 218.8092)" class="st188" width="0.7" height="39.6"/>
			
				<rect x="413.8" y="292.5" transform="matrix(0.9246 -0.3809 0.3809 0.9246 -78.7307 187.8762)" class="st188" width="43" height="0.7"/>
			
				<rect x="408.6" y="287.1" transform="matrix(0.4172 -0.9088 0.9088 0.4172 -13.2643 554.2515)" class="st188" width="33.8" height="0.7"/>
			
				<rect x="427.9" y="318.1" transform="matrix(0.5465 -0.8374 0.8374 0.5465 -66.6611 513.8274)" class="st193" width="26.5" height="0.7"/>
			
				<rect x="446.6" y="320.7" transform="matrix(0.5153 -0.857 0.857 0.5153 -71.2856 545.8309)" class="st193" width="0.7" height="30.5"/>
			
				<rect x="424.1" y="363" transform="matrix(0.479 -0.8778 0.8778 0.479 -85.3581 582.895)" class="st194" width="48.5" height="0.7"/>
			
				<rect x="453.5" y="343.1" transform="matrix(0.5707 -0.8211 0.8211 0.5707 -107.8762 530.8929)" class="st194" width="0.7" height="51"/>
			
				<rect x="458.4" y="386.3" transform="matrix(0.7033 -0.7109 0.7109 0.7033 -135.6875 448.1647)" class="st188" width="21.2" height="0.7"/>
			
				<rect x="447.6" y="381.9" transform="matrix(0.9418 -0.3363 0.3363 0.9418 -109.1284 174.0359)" class="st194" width="0.7" height="40.3"/>
			
				<rect x="445.1" y="407.3" transform="matrix(0.1934 -0.9811 0.9811 0.1934 -29.7659 779.0206)" class="st195" width="27.5" height="0.7"/>
			
				<rect x="405.6" y="383.9" transform="matrix(0.9903 -0.1387 0.1387 0.9903 -49.1941 62.3001)" class="st194" width="33.9" height="0.7"/>
			
				<rect x="436.7" y="382.9" transform="matrix(0.9977 -6.818942e-02 6.818942e-02 0.9977 -25.0708 32.0918)" class="st194" width="41.8" height="0.7"/>
			
				<rect x="477" y="382.1" transform="matrix(0.2608 -0.9654 0.9654 0.2608 -33.3786 756.5536)" class="st195" width="0.7" height="36"/>
			
				<rect x="450.2" y="376.8" transform="matrix(0.5454 -0.8382 0.8382 0.5454 -120.3888 554.0746)" class="st194" width="0.7" height="22.5"/>
			
				<rect x="432.2" y="346.9" transform="matrix(0.8833 -0.4689 0.4689 0.8833 -110.6309 250.0803)" class="st194" width="29.6" height="0.7"/>
			
				<rect x="488.9" y="392.7" transform="matrix(0.5582 -0.8297 0.8297 0.5582 -103.2091 592.3061)" class="st195" width="31.2" height="0.7"/>
			
				<rect x="502.7" y="364.6" transform="matrix(0.558 -0.8298 0.8298 0.558 -103.1435 590.7571)" class="st194" width="0.7" height="55.3"/>
			
				<rect x="496.4" y="394.4" transform="matrix(0.904 -0.4275 0.4275 0.904 -118.8426 260.2355)" class="st195" width="47.4" height="0.7"/>
			
				<rect x="520.2" y="375.2" transform="matrix(0.9552 -0.2959 0.2959 0.9552 -93.0857 171.6429)" class="st194" width="0.7" height="36.4"/>
			
				<rect x="515.6" y="393.8" transform="matrix(7.967699e-02 -0.9968 0.9968 7.967699e-02 67.7801 890.1976)" class="st195" width="0.7" height="29.2"/>
			
				<rect x="520" y="397.5" transform="matrix(0.5664 -0.8241 0.8241 0.5664 -96.4748 612.3881)" class="st195" width="27.4" height="0.7"/>
			
				<rect x="541" y="365.5" transform="matrix(0.9999 -1.239152e-02 1.239152e-02 0.9999 -4.6177 6.7374)" class="st194" width="0.7" height="21.1"/>
			
				<rect x="534.2" y="371.6" transform="matrix(0.7606 -0.6492 0.6492 0.7606 -108.498 449.645)" class="st194" width="42.7" height="0.7"/>
			
				<rect x="540.8" y="361.6" transform="matrix(0.9766 -0.2149 0.2149 0.9766 -64.757 128.258)" class="st194" width="33.2" height="0.7"/>
			
				<rect x="567.4" y="336.4" transform="matrix(0.8627 -0.5057 0.5057 0.8627 -98.1572 334.9294)" class="st193" width="0.7" height="23.6"/>
			
				<rect x="563.8" y="343" transform="matrix(0.6814 -0.7319 0.7319 0.6814 -64.8492 537.7921)" class="st193" width="42.9" height="0.7"/>
			
				<rect x="576.5" y="357.2" transform="matrix(0.8947 -0.4467 0.4467 0.8947 -103.9532 296.4838)" class="st194" width="0.7" height="23.1"/>
			<polygon class="st194" points="571.8,358.2 571.6,357.5 593,353.8 593.1,354.5 			"/>
			
				<rect x="576.2" y="327.2" transform="matrix(0.4568 -0.8896 0.8896 0.4568 5.6761 700.706)" class="st193" width="0.7" height="36.9"/>
			
				<rect x="562.1" y="350.8" transform="matrix(0.2837 -0.9589 0.9589 0.2837 45.4197 806.3278)" class="st194" width="0.7" height="44"/>
			
				<rect x="487.7" y="375.3" transform="matrix(0.7751 -0.6319 0.6319 0.7751 -137.918 396.6024)" class="st195" width="0.7" height="33.4"/>
		</g>
		<g>
			<circle class="st192" cx="217" cy="142.3" r="8.9"/>
			<circle class="st191" cx="229" cy="174.4" r="8.3"/>
			<circle class="st196" cx="239" cy="200.1" r="6.2"/>
			<circle class="st190" cx="246.1" cy="219.2" r="5.3"/>
			<circle class="st190" cx="226.7" cy="225.3" r="6.1"/>
			<circle class="st190" cx="251.5" cy="237.6" r="6.2"/>
			<circle class="st188" cx="270.1" cy="272.1" r="6.1"/>
			<circle class="st188" cx="293.2" cy="297.3" r="8.3"/>
			<path class="st189" d="M284.3,243.3c0,3.9-3.2,7.1-7.1,7.1s-7.1-3.2-7.1-7.1s3.2-7.1,7.1-7.1S284.3,239.4,284.3,243.3z"/>
			<path class="st196" d="M263.2,207.8c0,2.7-2.2,4.9-5,4.9s-4.9-2.2-4.9-4.9s2.2-4.9,4.9-4.9S263.2,205.1,263.2,207.8z"/>
			<circle class="st191" cx="237.5" cy="156.7" r="5.4"/>
			<circle class="st192" cx="292" cy="163.7" r="10.6"/>
			<circle class="st192" cx="337.8" cy="166.2" r="8.1"/>
			<circle class="st192" cx="361.7" cy="155.6" r="6.7"/>
			<circle class="st190" cx="394.6" cy="211.5" r="5.2"/>
			<circle class="st196" cx="406" cy="193.8" r="6.2"/>
			<circle class="st190" cx="428.4" cy="207.9" r="7.8"/>
			<circle class="st188" cx="438.1" cy="244.3" r="11.6"/>
			<path class="st188" d="M477.5,257.4c0,3.8-3.1,6.9-6.9,6.9s-6.9-3.1-6.9-6.9s3.1-6.9,6.9-6.9S477.5,253.5,477.5,257.4z"/>
			<path class="st188" d="M460.5,283.6c0,3-2.4,5.4-5.4,5.4s-5.4-2.4-5.4-5.4s2.4-5.4,5.4-5.4S460.5,280.6,460.5,283.6z"/>
			<circle class="st193" cx="458.4" cy="342.1" r="8.7"/>
			<circle class="st194" cx="478.4" cy="379" r="11.3"/>
			
				<ellipse transform="matrix(0.3836 -0.9235 0.9235 0.3836 -31.5751 706.3159)" class="st194" cx="513.3" cy="376.8" rx="9" ry="9"/>
			<circle class="st194" cx="541.2" cy="365.5" r="7.1"/>
			
				<ellipse transform="matrix(0.2289 -0.9735 0.9735 0.2289 104.0673 804.9886)" class="st193" cx="560.1" cy="336.8" rx="8.3" ry="8.3"/>
			<circle class="st193" cx="598.9" cy="327.6" r="9.2"/>
			<path class="st194" d="M598,354c0,3.5-2.9,6.4-6.4,6.4s-6.4-2.9-6.4-6.4s2.9-6.4,6.4-6.4S598,350.5,598,354z"/>
			<ellipse transform="matrix(0.229 -0.9734 0.9734 0.229 79.6737 858.3547)" class="st194" cx="581.7" cy="378.9" rx="8" ry="8"/>
			<path class="st194" d="M547.1,384.7c0,3.1-2.5,5.6-5.6,5.6s-5.6-2.5-5.6-5.6s2.5-5.6,5.6-5.6S547.1,381.6,547.1,384.7z"/>
			<circle class="st195" cx="519.2" cy="434" r="5.9"/>
			
				<ellipse transform="matrix(0.5912 -0.8065 0.8065 0.5912 -114.2276 591.1249)" class="st195" cx="526" cy="408.2" rx="8.2" ry="8.2"/>
			<circle class="st195" cx="552.6" cy="407.2" r="5.4"/>
			<circle class="st195" cx="497.8" cy="403.7" r="10.2"/>
			<circle class="st195" cx="455.1" cy="419.3" r="8.5"/>
			<circle class="st194" cx="403.8" cy="385.2" r="8.5"/>
			<circle class="st193" cx="366.3" cy="368.6" r="10.2"/>
			<path class="st193" d="M349.8,348.1c0,3.3-2.7,6-6,6s-6-2.7-6-6s2.7-6,6-6S349.8,344.8,349.8,348.1z"/>
			<circle class="st193" cx="356.7" cy="325" r="4.5"/>
			<circle class="st188" cx="338.1" cy="289.2" r="5.7"/>
			<circle class="st188" cx="315.7" cy="265.3" r="11"/>
			<circle class="st190" cx="297.3" cy="226.8" r="7.6"/>
			<circle class="st196" cx="281.7" cy="203.9" r="10.1"/>
			<path class="st191" d="M274.8,175.2c0,3-2.4,5.4-5.4,5.4s-5.4-2.4-5.4-5.4s2.4-5.4,5.4-5.4S274.8,172.3,274.8,175.2z"/>
			
				<ellipse transform="matrix(0.925 -0.3799 0.3799 0.925 -51.676 137.2387)" class="st196" cx="321.8" cy="199.5" rx="12" ry="12"/>
			<path class="st191" d="M324.4,175.2c0,3-2.4,5.4-5.4,5.4s-5.4-2.4-5.4-5.4s2.4-5.4,5.4-5.4S324.4,172.3,324.4,175.2z"/>
			<circle class="st189" cx="322.5" cy="241.5" r="8.9"/>
			<circle class="st189" cx="354.1" cy="237.1" r="10.3"/>
			<path class="st196" d="M365.5,205.8c0,3.2-2.6,5.7-5.7,5.7s-5.7-2.6-5.7-5.7s2.6-5.7,5.7-5.7S365.5,202.6,365.5,205.8z"/>
			<circle class="st191" cx="362.6" cy="181" r="6.6"/>
			<path class="st190" d="M345.9,218.9c0,2.8-2.2,5-5,5s-5-2.2-5-5s2.2-5,5-5S345.9,216.2,345.9,218.9z"/>
			
				<ellipse transform="matrix(0.1963 -0.9805 0.9805 0.1963 82.3018 599.8782)" class="st189" cx="407.1" cy="249.7" rx="10.1" ry="10.1"/>
			<circle class="st189" cx="379.3" cy="231.3" r="10.1"/>
			<circle class="st188" cx="372.2" cy="288.6" r="12.4"/>
			<path class="st188" d="M384.8,260.1c0,3.3-2.6,5.9-5.9,5.9s-5.9-2.6-5.9-5.9s2.6-5.9,5.9-5.9S384.8,256.9,384.8,260.1z"/>
			<circle class="st193" cx="418.6" cy="301.3" r="12.6"/>
			<circle class="st188" cx="432.6" cy="273.1" r="8.9"/>
			<path class="st189" d="M423.7,227c0,3.2-2.6,5.7-5.7,5.7s-5.7-2.6-5.7-5.7s2.6-5.7,5.7-5.7S423.7,223.8,423.7,227z"/>
			<circle class="st193" cx="378.9" cy="326.5" r="8"/>
			<circle class="st193" cx="392.5" cy="356.5" r="11.3"/>
			<path class="st194" d="M439.3,354c0,3.5-2.9,6.4-6.4,6.4s-6.4-2.9-6.4-6.4s2.9-6.4,6.4-6.4S439.3,350.5,439.3,354z"/>
			<circle class="st194" cx="437" cy="383.1" r="10.5"/>
			<circle class="st195" cx="460" cy="394.1" r="7.3"/>
			<path class="st193" d="M439.3,328.1c0,3-2.5,5.5-5.5,5.5s-5.5-2.5-5.5-5.5s2.5-5.5,5.5-5.5S439.3,325.1,439.3,328.1z"/>
			<circle class="st194" cx="571.7" cy="358.1" r="7.4"/>
		</g>
	</g>
	<g class="st187">
		
			<ellipse transform="matrix(0.4374 -0.8993 0.8993 0.4374 31.2336 306.6783)" class="st197" cx="260.7" cy="128.4" rx="27.6" ry="27.6"/>
		<path class="st122" d="M271.7,121h3.8l-14.3-10.6L246.9,121h3.8v14.1h-1.5v5.5h23.9v-5.5h-1.5V121z M268.3,121v14.1h-5.4V121
			H268.3z M254.1,121h5.4v14.1h-5.4L254.1,121L254.1,121z"/>
	</g>
	<g class="st187">
		
			<ellipse transform="matrix(0.1588 -0.9873 0.9873 0.1588 52.4613 687.9504)" class="st198" cx="430" cy="313.2" rx="27.6" ry="27.6"/>
		<path class="st122" d="M448.8,312.9l-5.6-10c1.7-0.2,2.4-0.7,2.5-0.8c0.4-0.3,0.5-0.9,0.2-1.3c-0.3-0.4-0.9-0.5-1.3-0.2
			c0,0-0.8,0.5-2.9,0.5c-0.8,0-1.6-0.3-2.6-0.6c-1.7-0.6-3.9-1.3-7.8-1.4v-1.3h-2.4v1.3c-3.8,0.1-6.1,0.9-7.8,1.4
			c-1,0.4-1.8,0.6-2.6,0.6c-2,0-2.8-0.5-2.8-0.5l0,0c-0.4-0.3-1-0.2-1.4,0.2c-0.3,0.4-0.2,1,0.2,1.4c0.1,0.1,0.9,0.6,2.5,0.8
			l-5.5,10h0c1.3,2.8,4,4.7,7.1,4.7s5.7-1.9,7.1-4.6h0l-5.6-10.1c0.6-0.1,1.1-0.3,1.8-0.5c1.5-0.5,3.4-1.1,6.6-1.3v12h0.5v9.9h-0.5
			v2.2c-2.5,0.5-4.8,1.8-6.5,3.1v0.6h16.6v-0.7c-1.8-1.3-4-2.6-6.5-3.1v-2.1h-0.5v-9.9h0.5v-12c3.2,0.2,5,0.8,6.6,1.3
			c0.6,0.2,1.2,0.4,1.8,0.5l-5.6,10.1h0c1.3,2.8,4,4.7,7.1,4.7S447.5,315.7,448.8,312.9L448.8,312.9L448.8,312.9z M413.8,312.9
			l4.8-8.7l4.8,8.7H413.8z M436.9,312.9l4.8-8.8l4.9,8.8H436.9z"/>
	</g>
	<g class="st187">
		<circle class="st194" cx="582.4" cy="369.4" r="27.6"/>
		<g>
			<path class="st122" d="M582.9,376c-0.2,0-0.4,0-0.6-0.1l-10.9-4.1v5.3c0,0,2.1,4.6,11,4.6s11-4.6,11-4.6v-4.9l-9.7,3.7
				C583.3,376,583.1,376,582.9,376L582.9,376z"/>
			<polygon class="st122" points="603.8,366.4 582.9,358.5 562,366.4 563.5,367 563.5,376.5 562.3,380.3 566.7,380.3 565.3,376.2 
				565.3,367.6 571.3,369.9 571.3,369.9 582.9,374.2 593.2,370.4 593.2,370.4 			"/>
		</g>
	</g>
	<g class="st187">
		
			<ellipse transform="matrix(0.9225 -0.3859 0.3859 0.9225 -37.5339 168.0242)" class="st196" cx="399.8" cy="177.5" rx="27.6" ry="27.6"/>
		<g>
			<path class="st122" d="M404.8,169.3c0,3.5-2.3,6.4-5,6.4s-5-2.8-5-6.4s2.3-6.4,5-6.4S404.8,165.8,404.8,169.3z"/>
			<path class="st122" d="M410.3,179.5l-6.5-3.3l-3.3,10.4c-0.1,0.3-0.4,0.6-0.8,0.6h0c-0.4,0-0.7-0.2-0.8-0.6l-3.6-10.2l-6.1,3.2
				c0,0-2.1,1.2-2.1,3.6v3.6c0,0,2.9,4.5,12.6,4.5s12.8-4.5,12.8-4.5v-3.6C412.5,180.7,410.3,179.5,410.3,179.5L410.3,179.5z"/>
			<path class="st122" d="M399.7,183.7l2.2-7c-0.7,0.4-1.4,0.6-2.2,0.6c-1,0-1.9-0.3-2.6-0.9L399.7,183.7L399.7,183.7z"/>
		</g>
	</g>
	<g class="st187">
		<circle class="st199" cx="319" cy="260.1" r="27.6"/>
		<g>
			<g>
				
					<rect x="321.1" y="247" transform="matrix(0.8106 -0.5857 0.5857 0.8106 -86.4176 237.9939)" class="st122" width="7.1" height="11.2"/>
				<g>
					<path class="st122" d="M322.5,242.1l1.8,2.4l-7,5.1l-1.8-2.4c0,0,0.8-1.2,3.2-2.9C321,242.6,322.5,242.1,322.5,242.1z"/>
					<path class="st122" d="M330.6,260.9c-2.4,1.7-3.8,2.1-3.8,2.1l-1.8-2.4l7-5.1l1.8,2.4C333.9,257.9,333,259.1,330.6,260.9
						L330.6,260.9z"/>
				</g>
				<path class="st122" d="M319.7,253.4c0,0-7.4,6.4-12.8,9.1s-8.6,4.7-7.3,6.4l1.1,1.5c1.3,1.8,4.1-0.7,8.4-5
					c4.3-4.2,12.7-9.3,12.7-9.3L319.7,253.4z"/>
			</g>
			<path class="st122" d="M327.1,267.4h-4.4c-1.4,0-1.4,2.2-1.4,2.2c-1.4,0-1.4,2.2-1.4,2.2h18.5c0,0,0.1-2.2-1.4-2.2
				c0,0,0-2.2-1.4-2.2H327.1z"/>
		</g>
	</g>
</g>
<g id="Layer_5">
	<rect x="-5.5" y="-6.1" class="st200" width="822.7" height="639.8"/>
</g>
</svg>
